<svg width="55" height="54" viewBox="0 0 55 54" fill="none" xmlns="http://www.w3.org/2000/svg">
<path d="M23.6947 9.22358C23.6646 8.99861 23.6496 8.81864 23.6196 8.59367C24.115 8.62367 24.5654 8.63867 25.1059 8.66866C25.0759 8.17374 25.0458 7.72381 25.0158 7.21389C25.3311 7.31887 25.5713 7.40886 25.8265 7.48384C26.2769 7.63382 26.5021 7.46885 26.5021 6.98892C26.5021 6.67397 26.5021 6.35902 26.5021 5.96908C26.7874 6.13405 27.0126 6.28403 27.2378 6.41901C28.0785 6.23904 27.9584 5.54914 27.9734 4.94924C28.0185 4.93424 28.0485 4.93424 28.0935 4.91924C28.2437 5.09921 28.4088 5.29418 28.574 5.48915C29.2796 5.2042 29.6849 4.67928 29.5198 3.79441C29.5798 3.79441 29.6249 3.80941 29.6849 3.80941C29.775 4.07937 29.8651 4.33433 29.9852 4.63428C30.3605 4.42432 30.8259 4.34933 30.9611 3.92939C31.0962 3.55445 31.0812 3.13452 31.1412 2.68459C31.5916 2.93955 31.2613 3.41947 31.5166 3.71943C32.042 3.64444 32.4624 3.47946 32.5224 2.83456C32.5525 2.47462 32.6876 2.11467 32.7927 1.70974C33.3031 2.09968 32.9728 2.62459 33.0779 3.04453C33.6484 3.07453 33.7235 3.04453 33.9037 2.5796C34.1138 2.05468 34.309 1.51477 34.5192 0.944854C35.1047 1.58975 34.5492 2.14467 34.4892 2.74458C34.8044 2.83456 35.0146 2.74458 35.1648 2.44462C35.5251 1.76973 35.9004 1.10983 36.3058 0.374942C36.576 0.884863 36.6961 1.3198 36.3358 1.78472C36.1256 2.03969 35.9905 2.33964 35.8103 2.63959C36.1556 2.81956 36.2757 2.5946 36.3959 2.41463C36.8162 1.79972 37.2366 1.16982 37.657 0.554914C37.7621 0.404938 37.8671 0.254961 37.9873 0.0899861C38.3926 0.689893 38.3926 0.959852 37.9722 1.46977C37.6419 1.87471 37.3117 2.27965 36.9513 2.69958C37.2066 2.95454 37.3717 2.78957 37.5218 2.6096C38.0173 2.03969 38.5127 1.48477 39.0081 0.914859C39.2634 0.629903 39.5336 0.344947 39.8489 0C39.939 0.314951 40.0591 0.539917 40.0591 0.764882C40.0741 0.929857 39.969 1.12483 39.8639 1.24481C39.3985 1.75473 38.9031 2.23465 38.4076 2.72958C38.2875 2.86456 38.1674 2.99954 38.0473 3.13452C38.2275 3.38948 38.3626 3.2695 38.4827 3.14951C38.843 2.80457 39.2033 2.44462 39.5787 2.08468C40.1942 1.48477 40.8097 0.884863 41.5154 0.209968C41.6054 0.569912 41.7105 0.83987 41.7255 1.10983C41.7406 1.22981 41.5904 1.40978 41.4703 1.49977C40.7347 2.14467 39.984 2.75957 39.2484 3.40447C39.0982 3.53945 38.873 3.64444 38.9031 3.92939C40.2843 2.99954 41.5604 1.9647 42.9266 0.944854C43.0017 1.15482 43.0767 1.3198 43.1368 1.48477C43.1968 1.64975 43.2419 1.79972 43.3019 2.00969C42.4762 2.5946 41.6505 3.17951 40.8247 3.76442C40.4194 4.04937 40.029 4.31933 39.6237 4.60429C39.4886 4.70927 39.3234 4.79926 39.5937 5.03922C41.095 4.09437 42.6113 3.14951 44.1877 2.15967C44.3228 2.48962 44.458 2.78957 44.6081 3.14951C43.0767 4.00438 41.5604 4.84425 39.999 5.71412C40.0591 5.89409 40.1041 6.04407 40.1792 6.28403C41.8006 5.44416 43.362 4.64928 44.9834 3.82441C45.1636 4.12436 45.3137 4.39432 45.5089 4.72427C43.8124 5.45916 42.1309 6.17905 40.4194 6.91393C40.4344 7.16889 40.4644 7.39386 40.4945 7.70881C40.7497 7.63382 40.9298 7.57383 41.125 7.49884C42.3411 7.06391 43.5572 6.62898 44.7732 6.19404C45.2987 6.01407 45.7941 6.31403 45.9292 6.92893C45.3587 7.07891 44.7882 7.22888 44.2177 7.37886C43.1968 7.64882 42.191 7.90378 41.1701 8.17374C40.3744 8.38371 40.3443 8.4437 40.4945 9.34356C40.6446 9.34356 40.8097 9.35855 40.9749 9.34356C41.9808 9.22358 42.9867 9.0886 43.9925 8.95362C44.473 8.89363 44.9684 8.84863 45.4338 9.0586C45.7041 9.17858 45.704 9.17858 45.689 9.62851C43.8574 9.82348 42.0258 10.0335 40.1341 10.2434C40.0441 10.6184 39.954 10.9633 39.8639 11.3832C40.3593 11.4582 40.7947 11.5482 41.2301 11.6082C42.1609 11.7432 43.0918 11.8482 44.0076 11.9832C44.2027 12.0131 44.4129 12.0731 44.5931 12.1781C44.7132 12.2381 44.7732 12.4031 44.8933 12.5831C44.2478 12.5831 43.7073 12.5981 43.1668 12.5831C42.0408 12.5231 40.9148 12.4631 39.8039 12.3731C39.4435 12.3431 39.2484 12.4781 39.1132 12.793C39.0232 13.003 38.9181 13.198 38.813 13.4379C38.9481 13.5279 39.0682 13.6179 39.2033 13.6629C40.3443 14.1878 41.4853 14.6977 42.6414 15.2077C42.7615 15.2676 42.9266 15.2826 42.9867 15.3876C43.0767 15.5226 43.1668 15.7176 43.1368 15.8676C43.1218 15.9725 42.8966 16.0775 42.7615 16.0925C42.6113 16.1075 42.4312 16.0325 42.266 15.9875C41.0199 15.6276 39.7888 15.2526 38.5427 14.8777C37.9572 14.6977 37.9572 14.6977 37.5969 15.3126C37.747 15.4326 37.9122 15.5526 38.0773 15.6576C42.4312 18.5671 46.2746 22.0316 49.3973 26.2609C51.5592 29.1705 53.2557 32.335 54.2166 35.8445C54.757 37.8392 55.0273 39.8638 54.8171 41.9035C54.3367 46.7778 51.7544 50.1673 47.3255 52.1769C45.3287 53.0768 43.1968 53.5117 41.0199 53.6917C36.7111 54.0367 32.5224 53.3468 28.4539 52.042C20.9622 49.6123 14.5066 45.563 9.02673 39.9688C5.91899 36.7893 3.35173 33.2349 1.65523 29.0955C0.604307 26.5909 -0.0562754 23.9813 0.00377755 21.2367C0.138897 16.0175 2.57104 12.2681 7.28519 10.0185C9.50715 8.95362 11.8943 8.50369 14.3564 8.35371C17.4191 8.15874 20.4218 8.53368 23.3944 9.19358C23.4695 9.20858 23.5595 9.20858 23.6947 9.22358ZM23.2743 9.95846C23.2743 9.91347 23.2743 9.86848 23.2743 9.82348C20.5119 9.23857 17.7344 8.93862 14.9119 9.19358C12.9001 9.37355 10.9334 9.77849 9.1018 10.6334C4.50775 12.763 2.12064 16.3775 2.00054 21.4467C1.9555 23.6514 2.43592 25.766 3.18658 27.8207C4.43268 31.2252 6.36939 34.2097 8.74148 36.9393C11.4589 40.0738 14.6267 42.7134 18.1698 44.8731C22.7338 47.6776 27.6281 49.6273 32.9728 50.3472C35.8253 50.7222 38.6628 50.7072 41.4703 50.0623C43.8574 49.5074 46.0644 48.5325 47.866 46.8378C50.9737 43.9132 51.9345 40.2538 51.4241 36.1294C51.1088 33.5798 50.238 31.1952 49.052 28.9155C47.3255 25.616 45.0285 22.7365 42.3411 20.1719C41.7406 19.602 41.11 19.0471 40.4945 18.4921C40.4644 18.5071 40.4494 18.5371 40.4194 18.5521C40.5245 18.7171 40.6446 18.8821 40.8097 19.122C40.5996 19.212 40.4344 19.332 40.2542 19.347C39.8339 19.377 39.4585 19.287 39.0832 19.0621C38.0323 18.4472 36.9664 17.8622 35.8854 17.2473C35.7203 17.3673 35.5551 17.4873 35.39 17.6073C35.45 17.7423 35.4951 17.8322 35.5401 17.9072C36.2157 19.152 36.9063 20.4118 37.5669 21.6567C37.657 21.8216 37.8521 22.0466 37.6419 22.2116C37.4918 22.3316 37.2366 22.3765 37.0414 22.3615C36.7712 22.3466 36.5009 22.2116 36.2307 22.1666C35.7353 22.1066 35.375 21.8516 35.0747 21.4617C34.7294 21.0118 34.354 20.5918 33.9937 20.1719C33.8886 20.0519 33.7685 19.9619 33.5734 19.7669C33.8586 21.4917 34.1289 23.0964 34.3991 24.7012C33.5433 24.9711 32.8077 24.7912 32.072 24.5212C31.9519 24.4762 31.8468 24.2813 31.7868 24.1313C31.6066 23.7413 31.4565 23.3514 31.3064 22.9465C31.2763 22.9465 31.2313 22.9615 31.2013 22.9615C31.1262 24.1313 31.0511 25.2861 30.9611 26.5309C30.0302 26.231 29.0994 26.2759 28.2587 25.796C28.1085 26.3509 27.9434 26.9058 27.7933 27.4908C26.9525 27.3108 26.1568 27.1458 25.3611 26.9808C25.211 27.2508 25.0759 27.4758 24.9408 27.7307C24.4303 27.5358 23.9349 27.3708 23.4544 27.1758C23.1692 27.0558 22.914 26.9958 22.7188 27.2958C22.1183 27.0258 21.5628 26.7709 21.0073 26.5159C20.9022 26.4709 20.7371 26.4259 20.722 26.3509C20.647 25.976 20.3017 25.946 20.0765 25.796C19.8212 25.631 19.551 25.5111 19.2958 25.3611C19.2507 25.3311 19.2357 25.2711 19.2057 25.2411C19.2808 25.0761 19.3408 24.9262 19.4309 24.7462C19.0406 24.4612 18.6652 24.1913 18.2899 23.9063C18.425 23.6514 18.5451 23.4114 18.6802 23.1714C18.41 22.8415 18.1398 22.5265 17.8695 22.1966C18.0797 21.9266 18.2749 21.6567 18.4851 21.3717C18.2298 21.0567 17.9746 20.7568 17.7344 20.4418C18.0347 20.1269 18.3199 19.8269 18.5902 19.527C18.38 19.212 18.1998 18.9271 18.0046 18.6421C18.365 18.3272 18.6802 18.0422 19.0105 17.7423C18.8454 17.4123 18.7103 17.1424 18.5451 16.8274C18.9355 16.5424 19.2958 16.2575 19.6561 15.9875C19.521 15.6426 19.4159 15.3426 19.2958 15.0427C19.7162 14.7877 20.0915 14.5628 20.4668 14.3228C20.3767 13.9478 20.3017 13.6329 20.2116 13.2879C20.647 13.078 21.0673 12.868 21.4877 12.658C21.3976 12.2831 21.3076 11.9682 21.2325 11.6082C21.4877 11.5332 21.7129 11.4732 21.9531 11.3982C22.1933 11.3233 22.4335 11.2483 22.6738 11.1583C22.5987 10.7533 22.5386 10.4084 22.4636 10.0335C22.7338 10.0484 23.004 10.0035 23.2743 9.95846ZM34.6994 14.5028C34.5943 14.4128 34.5492 14.3528 34.4892 14.3228C31.7868 12.733 28.9343 11.4582 25.9316 10.5434C25.6614 10.4534 25.5263 10.5434 25.3611 10.7383C24.4153 11.9532 23.5746 13.243 22.989 14.6677C22.5837 15.6576 22.2834 16.6774 22.3585 17.7723C22.4486 19.317 23.4094 20.2469 24.9558 20.2919C26.0667 20.3219 27.1027 20.0069 28.1085 19.572C30.3155 18.5971 32.1921 17.1424 33.8586 15.4326C34.1589 15.1177 34.4141 14.8177 34.6994 14.5028ZM26.0667 9.91347C29.2646 10.9333 32.2822 12.2381 35.2248 13.9179C35.2999 13.7979 35.39 13.6929 35.45 13.5879C36.0956 12.5831 36.7712 11.5932 37.3567 10.5434C37.9272 9.52353 38.2725 8.4137 38.3326 7.22888C38.4226 5.53415 37.5969 4.39432 35.9304 4.22935C35.1498 4.15436 34.3991 4.31933 33.6634 4.5443C32.057 5.03922 30.6158 5.89409 29.2796 6.91393C28.1236 7.7688 27.0726 8.75865 26.0667 9.91347Z" fill="white"/>
<path d="M32.3421 44.2132C30.7357 44.2132 29.1893 44.2132 27.5979 44.2132C27.5979 41.9786 27.5979 39.7739 27.5979 37.5243C27.8531 37.5243 28.1234 37.5243 28.4537 37.5243C28.4537 39.429 28.4537 41.3337 28.4537 43.2834C28.814 43.2834 29.1142 43.2834 29.4896 43.2834C29.4896 41.3637 29.4896 39.459 29.4896 37.5093C29.8048 37.5093 30.0601 37.5093 30.3904 37.5093C30.3904 39.429 30.3904 41.3487 30.3904 43.2984C30.7657 43.2984 31.0509 43.2984 31.3962 43.2984C31.3962 41.3787 31.3962 39.474 31.3962 37.5243C31.7416 37.5243 32.0268 37.5243 32.3421 37.5243C32.3421 39.7439 32.3421 41.9486 32.3421 44.2132Z" fill="white"/>
<path d="M29.5349 28.6306C30.4958 28.6306 31.4116 28.6306 32.3724 28.6306C32.3724 30.8953 32.3724 33.1299 32.3724 35.4096C31.4116 35.4096 30.4958 35.4096 29.5349 35.4096C29.5349 33.1299 29.5349 30.8953 29.5349 28.6306ZM31.4566 34.5097C31.5016 32.8 31.5016 31.1502 31.4566 29.4405C31.0663 29.4555 30.781 29.4705 30.5108 29.4855C30.3907 30.5653 30.4357 34.1198 30.5708 34.5097C30.8561 34.5097 31.1263 34.5097 31.4566 34.5097Z" fill="white"/>
<path d="M36.3509 28.6455C36.3509 29.5754 36.3509 30.4452 36.3509 31.4201C35.7204 31.4201 35.1198 31.4201 34.4743 31.4201C34.4743 31.855 34.4743 32.2 34.4743 32.6199C35.0898 32.6199 35.6753 32.6199 36.3209 32.6199C36.3209 33.5797 36.3209 34.4646 36.3209 35.3945C35.4351 35.3945 34.5193 35.3945 33.5735 35.3945C33.5735 33.1598 33.5735 30.9252 33.5735 28.6455C34.4743 28.6455 35.3751 28.6455 36.3509 28.6455ZM35.4201 30.5052C35.4201 30.1303 35.4201 29.8303 35.4201 29.5304C35.0748 29.5304 34.7896 29.5304 34.4893 29.5304C34.4893 29.8753 34.4893 30.1753 34.4893 30.5052C34.8046 30.5052 35.0898 30.5052 35.4201 30.5052ZM35.4201 34.5396C35.4201 34.1797 35.4201 33.8647 35.4201 33.5647C35.0748 33.5647 34.7745 33.5647 34.4292 33.5647C34.4443 33.9247 34.4593 34.2246 34.4743 34.5396C34.8196 34.5396 35.0898 34.5396 35.4201 34.5396Z" fill="white"/>
<path d="M23.5896 38.4691C23.8899 38.4391 24.1751 38.4091 24.5054 38.3791C24.5354 38.0792 24.5655 37.8092 24.5805 37.5093C25.196 37.5093 25.7815 37.5093 26.3971 37.5093C26.3971 39.7739 26.3971 41.9936 26.3971 44.2582C26.1118 44.2582 25.8416 44.2582 25.4963 44.2582C25.4963 43.2984 25.4963 42.3535 25.4963 41.3637C25.151 41.3637 24.8807 41.3637 24.5204 41.3637C24.5204 42.3085 24.5204 43.2534 24.5204 44.2432C24.1751 44.2432 23.9049 44.2432 23.5896 44.2432C23.5896 42.3235 23.5896 40.4188 23.5896 38.4691ZM24.5504 38.4541C24.5504 39.144 24.5504 39.7589 24.5504 40.3738C24.8807 40.3738 25.151 40.3738 25.4512 40.3738C25.4512 39.7139 25.4512 39.099 25.4512 38.4541C25.136 38.4541 24.8657 38.4541 24.5504 38.4541Z" fill="white"/>
<path d="M23.5145 32.2149C23.1992 32.5298 22.8839 32.8298 22.5987 33.1747C22.4936 33.2947 22.4936 33.5197 22.4936 33.6997C22.4786 34.2546 22.4936 34.8095 22.4936 35.4094C22.1783 35.4094 21.9381 35.4094 21.6528 35.4094C21.6528 33.1447 21.6528 30.8951 21.6528 28.6304C21.9381 28.6304 22.1933 28.6304 22.4936 28.6304C22.4936 29.7703 22.4936 30.8951 22.4936 32.0049C22.5386 32.0199 22.5837 32.0349 22.6137 32.0499C23.0941 31.54 23.7997 31.21 23.6646 30.2652C23.5895 29.7553 23.6496 29.2154 23.6496 28.6304C23.9198 28.6154 24.1751 28.6004 24.4753 28.5854C24.4753 30.8651 24.4753 33.0998 24.4753 35.3944C24.2501 35.3944 23.9949 35.3944 23.6646 35.3944C23.6646 34.3746 23.6646 33.3247 23.6646 32.2749C23.6196 32.2449 23.5595 32.2299 23.5145 32.2149Z" fill="white"/>
<path d="M36.3359 37.5242C36.3359 39.7888 36.3359 41.9935 36.3359 44.2431C36.2158 44.2581 36.1257 44.2881 36.0357 44.2881C35.8855 44.2881 35.7354 44.2731 35.5252 44.2581C35.5252 43.2083 35.5252 42.1735 35.5252 41.1386C35.4802 41.1236 35.4201 41.1086 35.3751 41.0936C34.9247 41.5735 34.2491 41.8885 34.3392 42.7584C34.3842 43.2383 34.3542 43.7182 34.3542 44.2581C34.0539 44.2581 33.7987 44.2581 33.5134 44.2581C33.5134 42.0085 33.5134 39.8038 33.5134 37.5392C33.7687 37.5392 34.0089 37.5392 34.3542 37.5392C34.3542 38.649 34.3542 39.7588 34.3542 40.8537C34.3992 40.8687 34.4442 40.8837 34.4893 40.8986C34.8046 40.5687 35.1499 40.2537 35.4351 39.9088C35.5252 39.8038 35.5102 39.5939 35.5102 39.4289C35.5102 38.814 35.5102 38.1991 35.5102 37.5392C35.7804 37.5242 36.0357 37.5242 36.3359 37.5242Z" fill="white"/>
<path d="M37.4919 37.4941C37.8072 37.4941 38.0474 37.4941 38.3477 37.4941C38.3477 38.469 38.3477 39.4138 38.3477 40.4187C38.738 40.4187 39.0533 40.4187 39.4587 40.4187C39.4587 39.4738 39.4587 38.529 39.4587 37.5241C39.804 37.5241 40.0592 37.5241 40.3745 37.5241C40.3745 39.7588 40.3745 41.9785 40.3745 44.2431C40.1042 44.2431 39.834 44.2431 39.4887 44.2431C39.4887 43.2832 39.4887 42.3534 39.4887 41.4085C39.0984 41.4085 38.7831 41.4085 38.4078 41.4085C38.4078 42.3534 38.4078 43.2832 38.4078 44.2431C38.0775 44.2431 37.8072 44.2431 37.507 44.2431C37.4919 41.9934 37.4919 39.7738 37.4919 37.4941Z" fill="white"/>
<path d="M42.3411 31.5852C42.6564 31.6152 42.9566 31.6302 43.2869 31.6601C43.2869 31.9001 43.2869 32.1251 43.2869 32.395C42.9717 32.425 42.6564 32.47 42.3261 32.5C42.3261 33.1449 42.3261 33.7448 42.3261 34.4047C42.6564 34.4047 42.9566 34.4047 43.2869 34.4047C43.317 34.1348 43.347 33.9098 43.377 33.6248C43.6322 33.6248 43.8875 33.6248 44.1877 33.6248C44.1877 34.1948 44.1877 34.7797 44.1877 35.4096C43.317 35.4096 42.4162 35.4096 41.4854 35.4096C41.4854 33.1749 41.4854 30.9253 41.4854 28.6306C42.4312 28.6306 43.347 28.6306 44.3078 28.6306C44.3078 29.2455 44.3078 29.8454 44.3078 30.4603C44.0076 30.4603 43.7373 30.4603 43.4521 30.4603C43.4221 30.1754 43.407 29.9054 43.377 29.6055C43.0167 29.6055 42.7014 29.6055 42.3411 29.6055C42.3411 30.2654 42.3411 30.8953 42.3411 31.5852Z" fill="white"/>
<path d="M20.5719 28.6305C20.5719 29.2604 20.5719 29.8303 20.5719 30.4452C20.2866 30.4452 20.0314 30.4452 19.7311 30.4452C19.7011 30.1902 19.6861 29.9353 19.6561 29.6203C19.3108 29.6203 18.9655 29.6203 18.5901 29.6203C18.5901 31.1951 18.5901 32.7848 18.5901 34.3896C18.9054 34.3896 19.2057 34.3896 19.551 34.3896C19.581 34.1496 19.611 33.8947 19.6411 33.5947C19.9113 33.5947 20.1815 33.5947 20.4818 33.5947C20.4818 34.1946 20.4818 34.7645 20.4818 35.3794C19.596 35.3794 18.6802 35.3794 17.7344 35.3794C17.7344 33.1298 17.7344 30.8951 17.7344 28.6155C18.6652 28.6305 19.596 28.6305 20.5719 28.6305Z" fill="white"/>
<path d="M44.2928 41.4536C44.2928 42.4584 44.2928 43.3583 44.2928 44.2731C43.347 44.2731 42.4462 44.2731 41.4854 44.2731C41.4854 42.0385 41.4854 39.8038 41.4854 37.5242C41.7406 37.5242 41.9958 37.5242 42.3411 37.5242C42.3411 38.814 42.3411 40.1038 42.3411 41.4536C43.0317 41.4536 43.6473 41.4536 44.2928 41.4536ZM42.3861 43.3733C42.7314 43.3733 43.0167 43.3733 43.332 43.3733C43.332 43.0283 43.332 42.7434 43.332 42.4134C43.0017 42.4134 42.7164 42.4134 42.3861 42.4134C42.3861 42.7584 42.3861 43.0583 42.3861 43.3733Z" fill="white"/>
<path d="M37.4919 28.6155C37.8072 28.6155 38.0324 28.6155 38.3477 28.6155C38.3477 29.9053 38.3477 31.1951 38.3477 32.5599C39.0233 32.5599 39.6238 32.5599 40.2694 32.5599C40.2694 33.5497 40.2694 34.4646 40.2694 35.4094C39.3386 35.4094 38.4378 35.4094 37.4919 35.4094C37.4919 33.1298 37.4919 30.9101 37.4919 28.6155ZM39.3686 34.5096C39.3686 34.1496 39.3686 33.8647 39.3686 33.5347C39.0383 33.5347 38.738 33.5347 38.4228 33.5347C38.4228 33.8797 38.4228 34.1796 38.4228 34.5096C38.7531 34.5096 39.0383 34.5096 39.3686 34.5096Z" fill="white"/>
<path d="M28.4088 35.4096C28.1085 35.4096 27.8383 35.4096 27.493 35.4096C27.493 33.4749 27.493 31.5552 27.493 29.6055C27.1627 29.5605 26.8924 29.5305 26.5771 29.5005C26.5771 29.2155 26.5771 28.9456 26.5771 28.6306C27.1927 28.6306 27.7782 28.6306 28.4088 28.6306C28.4088 30.8953 28.4088 33.1299 28.4088 35.4096Z" fill="white"/>
<path d="M20.6169 38.499C20.6169 38.1841 20.6169 37.8691 20.6169 37.5242C21.2475 37.5242 21.833 37.5242 22.4636 37.5242C22.4636 39.7438 22.4636 41.9635 22.4636 44.2131C22.1933 44.2131 21.9081 44.2131 21.5478 44.2131C21.5478 42.2934 21.5478 40.4187 21.5478 38.484C21.1874 38.484 20.8872 38.484 20.6169 38.499Z" fill="white"/>
<path d="M18.5751 44.2282C18.2598 44.2282 18.0046 44.2282 17.7043 44.2282C17.7043 42.2785 17.7043 40.3588 17.7043 38.4091C17.9896 38.3641 18.2598 38.3342 18.5601 38.2892C18.5751 38.0042 18.6051 37.7342 18.6202 37.4043C18.9204 37.4043 19.2057 37.4043 19.536 37.4043C19.536 37.7043 19.536 37.9892 19.536 38.3042C19.4609 38.3342 19.4008 38.3641 19.3258 38.3641C18.5151 38.3492 18.5751 38.3791 18.5751 39.204C18.5751 40.6588 18.5751 42.1286 18.5751 43.5833C18.5751 43.8083 18.5751 44.0033 18.5751 44.2282Z" fill="white"/>
<path d="M20.6021 38.4841C20.5871 38.8441 20.557 39.189 20.557 39.549C20.557 40.9138 20.557 42.2785 20.557 43.6583C20.557 43.8383 20.542 44.0183 20.527 44.2282C20.2117 44.2282 19.9415 44.2282 19.6262 44.2282C19.6262 42.3385 19.6262 40.4638 19.6262 38.4991C19.9565 38.4991 20.2868 38.4991 20.6021 38.4841Z" fill="white"/>
<path d="M26.3821 35.4094C26.1419 35.4094 25.8867 35.4094 25.5864 35.4094C25.5864 33.4897 25.5864 31.585 25.5864 29.6353C25.8417 29.6353 26.0969 29.6353 26.3521 29.6353C26.4872 30.0402 26.5172 34.7645 26.3821 35.4094Z" fill="white"/>
<path d="M39.4736 28.6306C39.7739 28.6306 40.0441 28.6306 40.3444 28.6306C40.3444 29.5755 40.3444 30.5053 40.3444 31.4652C40.0592 31.4652 39.7889 31.4652 39.4736 31.4652C39.4736 30.5353 39.4736 29.6205 39.4736 28.6306Z" fill="white"/>
<path d="M43.4671 37.4941C43.7223 37.4941 43.8874 37.4941 44.0526 37.4941C44.1277 37.4941 44.2027 37.5091 44.3078 37.5241C44.3078 38.454 44.3078 39.3839 44.3078 40.3437C44.0526 40.3437 43.7974 40.3437 43.4521 40.3437C43.4371 39.4288 43.407 38.499 43.4671 37.4941Z" fill="white"/>
</svg>
